<?xml version="1.0" encoding="UTF-8"?>
<svg width="750px" height="766px" viewBox="0 0 750 766" version="1.1" xmlns="http://www.w3.org/2000/svg" xmlns:xlink="http://www.w3.org/1999/xlink">
    <!-- Generator: Sketch 59.1 (86144) - https://sketch.com -->
    <title>Fill 1</title>
    <desc>Created with Sketch.</desc>
    <g id="Page-1" stroke="none" stroke-width="1" fill="none" fill-rule="evenodd" fill-opacity="0.709817526">
        <g id="Artboard-Copy-17" transform="translate(-349.000000, -129.000000)" fill="#003EFF">
            <path d="M774,516 C774,513.790349 772.232051,512 770.054095,512 L714.945905,512 C712.767949,512 711,513.790349 711,516 C711,518.209651 712.767949,520 714.945905,520 L770.054095,520 C772.232051,520 774,518.209651 774,516 L774,516 Z M768.9603,546.524384 C767.053082,545.404179 764.642754,546.138226 763.583919,548.159467 C759.236778,556.470559 750.966688,561.636725 741.999478,561.636725 C733.035555,561.636725 724.765465,556.470559 720.415036,548.159467 C719.356202,546.138226 716.949162,545.404179 715.038656,546.524384 C713.12815,547.641111 712.437606,550.187666 713.49644,552.208906 C719.237823,563.184835 730.158287,570 741.999478,570 C753.843956,570 764.764421,563.184835 770.505803,552.208906 C771.56135,550.187666 770.870805,547.641111 768.9603,546.524384 L768.9603,546.524384 Z M692.961423,620.525273 C691.054279,619.404943 688.644044,620.139072 687.588539,622.157057 C683.23499,630.469065 674.961932,635.635802 665.998356,635.635802 C657.038068,635.635802 648.76501,630.469065 644.41475,622.157057 C643.355956,620.135593 640.945721,619.404943 639.038577,620.525273 C637.128145,621.642123 636.437628,624.192438 637.496421,626.213901 C643.24087,637.184083 654.160912,644 665.998356,644 C677.8358,644 688.75913,637.184083 694.503579,626.213901 C695.562372,624.192438 694.871855,621.642123 692.961423,620.525273 L692.961423,620.525273 Z M621,516 C621,513.790349 619.231959,512 617.053889,512 L561.94283,512 C559.764761,512 558,513.790349 558,516 C558,518.209651 559.764761,520 561.94283,520 L617.053889,520 C619.231959,520 621,518.209651 621,516 L621,516 Z M615.960336,546.524384 C614.049865,545.404179 611.642868,546.138226 610.584053,548.159467 C606.233702,556.470559 597.963761,561.636725 589,561.636725 C580.036239,561.636725 571.76301,556.470559 567.415947,548.159467 C566.353844,546.138226 563.946847,545.404179 562.039664,546.524384 C560.129192,547.641111 559.43866,550.187666 560.494188,552.208906 C566.238755,563.184835 577.159023,570 589,570 C600.837689,570 611.761245,563.184835 617.505812,552.208906 C618.56134,550.187666 617.870808,547.641111 615.960336,546.524384 L615.960336,546.524384 Z M650.810863,600.511746 C651.539396,601.450343 652.657759,602 653.843224,602 L675.156027,602 C677.277721,602 679,600.270669 679,598.136326 C679,596.001984 677.277721,594.272653 675.156027,594.272653 L658.776802,594.272653 L668.934733,553.81337 C669.455571,551.740101 668.209395,549.641117 666.151607,549.117174 C664.10021,548.599661 662.004078,549.843622 661.483241,551.916891 L650.117478,597.188087 C649.826703,598.345261 650.082329,599.569936 650.810863,600.511746 L650.810863,600.511746 Z M961,512.541151 C960.993563,635.090815 865.915681,739.446306 744.528294,750.141726 C732.079956,750.180512 720.506992,752.924668 710.292146,755.352066 C707.704642,755.966188 705.17185,756.570613 702.69055,757.113627 C695.414001,758.710344 686.264408,759.676778 675.499234,759.980607 C675.47027,759.980607 675.444523,760 675.418777,760 C673.687338,759.964446 672.284165,758.5455 672.284165,756.793637 C672.284165,755.025612 673.719521,753.584041 675.479925,753.584041 C675.708423,753.584041 675.904739,753.493539 676.123582,753.454752 C685.836375,753.021635 700.109483,751.744907 711.29947,748.050479 C713.326992,747.378177 714.434083,745.183498 713.764679,743.143967 C713.098493,741.107668 710.913276,739.992551 708.882536,740.664853 C696.678788,744.692201 680.117478,745.639242 671.289714,745.842871 C669.545402,745.820246 668.132573,744.398069 668.132573,742.63974 C668.132573,740.868483 669.56793,739.42368 671.328333,739.42368 C671.344425,739.42368 671.354079,739.417216 671.366953,739.413984 C680.436088,739.213586 698.033687,738.230991 711.302688,733.854563 C713.33021,733.182261 714.437301,730.987583 713.771115,728.948052 C713.10493,726.90852 710.92293,725.799868 708.885754,726.468938 C694.187833,731.320502 673.246433,731.698672 667.176742,731.698672 C665.416338,731.698672 663.980982,730.253869 663.980982,728.482612 C663.980982,726.711355 665.416338,725.269784 667.176742,725.269784 C668.155101,725.269784 669.56793,725.260087 671.273622,725.221301 C671.289714,725.221301 671.309023,725.227765 671.328333,725.227765 C671.344425,725.227765 671.354079,725.221301 671.366953,725.221301 C679.798867,725.027367 695.819505,724.1579 708.692657,720.450542 C710.745925,719.859046 711.933473,717.706387 711.344526,715.64423 C710.758798,713.57884 708.618636,712.389383 706.558932,712.977647 C694.548281,716.436124 679.374053,717.263572 671.292932,717.451041 C669.54862,717.428416 668.132573,716.003006 668.132573,714.244678 C668.132573,712.470188 669.56793,711.028618 671.328333,711.028618 L671.40879,711.028618 C692.469267,710.5955 713.841918,705.782723 720.484464,702.266066 L723.5,702.266066 C827.672764,702.266066 912.423161,617.151988 912.423161,512.528222 C912.423161,510.382027 910.688504,508.643092 908.55156,508.643092 C906.414617,508.643092 904.67996,510.382027 904.67996,512.528222 C904.67996,601.579146 840.642465,675.839426 756.400558,691.434893 C755.486564,691.218335 754.553261,691.011472 753.610303,690.798146 C750.295466,690.057967 746.867989,689.291931 743.591772,688.044293 C736.209019,685.232261 729.437741,683.73251 722.959328,683.338179 L722.959328,668.211385 C722.959328,654.606966 687.89608,650.980414 667.176742,650.980414 C646.460622,650.980414 611.400592,654.606966 611.400592,668.211385 L611.400592,722.842386 C533.891344,681.169359 486,601.204209 486,512.541151 C486,512.534687 486,512.531454 486,512.52499 C486,381.00268 592.544643,274 723.5,274 C854.455357,274 961,381.00268 961,512.52499 C961,512.531454 961,512.534687 961,512.541151 L961,512.541151 Z M858.031207,260.517284 C858.618867,260.845662 859.254961,261 859.881368,261 C861.25688,261 862.590416,260.251298 863.294317,258.934501 L905.528353,179.834752 C906.551914,177.917023 905.854472,175.523146 903.968793,174.478903 C902.086343,173.437944 899.726016,174.150525 898.705683,176.068254 L856.471647,255.164719 C855.448086,257.079164 856.145528,259.479609 858.031207,260.517284 L858.031207,260.517284 Z M960.86914,346 C961.656499,346 962.450285,345.752922 963.134805,345.242295 L1034.40525,292.16674 C1036.13423,290.881937 1036.51666,288.404572 1035.2601,286.635497 C1034.00675,284.863127 1031.59004,284.471097 1029.86428,285.755901 L958.593833,338.834751 C956.868071,340.119554 956.482426,342.596918 957.738986,344.365994 C958.494208,345.436663 959.67364,346 960.86914,346 L960.86914,346 Z M1094.54295,438.071253 L1010.08148,454.265881 C1008.0352,454.655019 1006.6846,456.691509 1007.06377,458.812311 C1007.39907,460.686659 1008.98157,462 1010.76462,462 C1010.99338,462 1011.22213,461.9773 1011.45716,461.931901 L1095.91863,445.737273 C1097.96177,445.344892 1099.31551,443.311646 1098.93634,441.194086 C1098.55403,439.076527 1096.5955,437.659415 1094.54295,438.071253 L1094.54295,438.071253 Z M1091.15786,607.785137 L1006.82333,586.12834 C1004.7848,585.597296 1002.67939,586.76315 1002.13153,588.722516 C1001.58368,590.681883 1002.79724,592.693133 1004.84214,593.218072 L1089.17667,614.871817 C1089.50793,614.960324 1089.84237,615 1090.17045,615 C1091.86179,615 1093.4098,613.919602 1093.86847,612.280692 C1094.41632,610.321326 1093.20276,608.310076 1091.15786,607.785137 L1091.15786,607.785137 Z M944.570205,697.899504 C942.894338,696.555796 940.383849,696.73662 938.953069,698.314151 C937.525601,699.888565 937.724321,702.25798 939.396876,703.59857 L1008.432,759.102116 C1009.18383,759.706941 1010.10125,760 1011.01536,760 C1012.14143,760 1013.25757,759.557294 1014.04583,758.687469 C1015.4733,757.113055 1015.27789,754.746758 1013.60202,753.40305 L944.570205,697.899504 Z M845.133032,776.25669 C844.293362,774.335676 842.096589,773.479779 840.212755,774.326166 C838.332019,775.182063 837.486153,777.435925 838.322724,779.360109 L872.870011,858.739798 C873.489693,860.156783 874.846797,861 876.275165,861 C876.783304,861 877.297641,860.89222 877.790288,860.670321 C879.667925,859.811254 880.513792,857.560562 879.677221,855.636379 L845.133032,776.25669 Z M715.998141,800 C714.293998,799.98418 712.881994,801.612877 712.83843,803.732414 L711.001031,891.070091 C710.957466,893.186441 712.300279,894.945816 714.001859,895 L714.081301,895 C715.747004,895 717.118006,893.352179 717.16157,891.267702 L718.998969,803.930025 C719.042534,801.813675 717.699721,800.0543 715.998141,800 L715.998141,800 Z M592.87604,766.425592 C590.965575,765.449603 588.625174,766.208345 587.64893,768.127898 L547.425716,847.32889 C546.449472,849.248442 547.209132,851.592761 549.12283,852.571992 C549.688535,852.860573 550.293031,853 550.884596,853 C552.300474,853 553.66463,852.221803 554.349941,850.869686 L594.576386,771.668694 C595.549398,769.749141 594.789738,767.404823 592.87604,766.425592 L592.87604,766.425592 Z M490.673759,687.817459 L419.540872,742.885504 C417.817093,744.218647 417.49,746.710041 418.811455,748.449066 C419.586665,749.468723 420.754387,750 421.935192,750 C422.77255,750 423.613179,749.732711 424.326241,749.181635 L495.459128,694.11689 C497.182907,692.780447 497.51,690.289054 496.188545,688.550028 C494.863819,686.814302 492.394267,686.487616 490.673759,687.817459 L490.673759,687.817459 Z M440.916609,568.415909 C440.482082,566.090733 438.473181,564.581157 436.426495,565.103428 L351.999131,585.489856 C349.955594,585.983508 348.648864,588.269335 349.083391,590.590934 C349.461241,592.612049 351.032466,594 352.783169,594 C353.044516,594 353.30901,593.967805 353.573505,593.903416 L438.000869,573.516988 C440.044406,573.023335 441.351136,570.737508 440.916609,568.415909 L440.916609,568.415909 Z M354.917282,427.813393 L439.30351,448.891317 C439.601102,448.963772 439.898693,449 440.193119,449 C441.912186,449 443.472959,447.778139 443.89402,445.963462 C444.384729,443.835909 443.124713,441.698476 441.079562,441.187995 L356.6965,420.110071 C354.651349,419.59959 352.593534,420.913667 352.10599,423.037926 C351.615281,425.165479 352.875296,427.302912 354.917282,427.813393 L354.917282,427.813393 Z M498.637705,331.141069 C499.358733,331.717963 500.229163,332 501.08985,332 C502.229853,332 503.356865,331.512845 504.129859,330.570585 C505.48747,328.916822 505.22764,326.490662 503.551737,325.150986 L434.365543,269.858903 C432.686392,268.519227 430.227752,268.775625 428.870141,270.426182 C427.51253,272.08315 427.77236,274.50931 429.448263,275.848986 L498.637705,331.141069 Z M592.750992,250.804771 C593.406683,252.189208 594.768747,253 596.194163,253 C596.742156,253 597.299652,252.878221 597.828639,252.625049 C599.729194,251.708501 600.533762,249.407516 599.627831,247.487893 L562.247098,168.193673 C561.338,166.27405 559.070005,165.460052 557.169451,166.3766 C555.272064,167.293148 554.467496,169.594133 555.37026,171.513756 L592.750992,250.804771 Z M723,224 C725.207814,224 727,222.282691 727,220.167119 L727,132.829694 C727,130.714123 725.207814,129 723,129 C720.792186,129 719,130.714123 719,132.829694 L719,220.167119 C719,222.282691 720.792186,224 723,224 L723,224 Z M740,690.193702 C735.378648,687.817748 731.115563,686.448473 727,686 L727,691 L727.50579,691 C731.714683,691 735.869384,690.675573 740,690.193702 L740,690.193702 Z M634,673.997858 C636.139293,674.63203 638.431393,675.197643 640.85447,675.686127 L640.91684,675.698982 C642.061331,675.93037 643.233888,676.144617 644.431393,676.341725 C644.546778,676.363149 644.662162,676.380289 644.780665,676.401714 C645.906445,676.585967 647.060291,676.748795 648.226611,676.903053 C648.438669,676.933048 648.653846,676.958757 648.869023,676.988752 C649.960499,677.12587 651.070686,677.245849 652.190229,677.352973 C652.558212,677.391537 652.932432,677.421532 653.303534,677.455811 C654.307692,677.545795 655.321206,677.627209 656.347193,677.695769 C657.002079,677.734333 657.675676,677.768613 658.349272,677.802892 C659.147609,677.845742 659.945946,677.884306 660.756757,677.914301 C662.303534,677.96572 663.878378,678 665.503119,678 C667.127859,678 668.702703,677.96572 670.252599,677.914301 C671.050936,677.884306 671.836798,677.845742 672.62578,677.802892 C673.314969,677.768613 674.007277,677.734333 674.680873,677.695769 C675.672557,677.627209 676.654886,677.545795 677.627859,677.464381 C678.045738,677.425817 678.466736,677.387252 678.878378,677.348688 C679.935551,677.241564 680.980249,677.130155 682.009356,676.997322 C682.324324,676.963042 682.636175,676.920193 682.948025,676.877343 C683.986486,676.740225 685.015593,676.594537 686.022869,676.431709 C686.334719,676.380289 686.637214,676.324585 686.945946,676.27745 C687.909563,676.110337 688.857588,675.938939 689.786902,675.754687 C690.136175,675.686127 690.469854,675.608998 690.809771,675.540439 C691.673597,675.360471 692.528067,675.171934 693.35447,674.970541 C693.691268,674.889127 694.012474,674.803428 694.339917,674.717729 C695.181913,674.503482 696.017672,674.284949 696.819127,674.049277 C696.881497,674.032137 696.93763,674.014997 697,673.993573 C688.392931,671.456883 677.278586,670 665.503119,670 C653.724532,670 642.607069,671.456883 634,673.997858 L634,673.997858 Z M713,665.813363 C712.013599,662.837107 694.827941,657 665.493636,657 C634.164255,657 618.855942,663.38984 618,665.950028 L618,665.977361 C618.203644,666.566538 619.05004,667.258973 620.472367,668 C630.380928,664.109608 646.993837,661.804528 665.493636,661.804528 C683.939342,661.804528 700.510886,664.094423 710.428992,667.966593 C711.911777,667.186085 712.799538,666.445058 713,665.813363 L713,665.813363 Z M665.493636,779 C636.25479,779 619.078678,772.881664 618,769.57757 L618,728.193155 C618.21319,727.424761 618.248191,726.640359 618,725.913587 L618,676 C622.470626,678.292375 628.509948,679.966833 635.087018,681.148239 C635.624766,681.24749 636.172059,681.340338 636.725717,681.436387 C636.760718,681.44279 636.795719,681.449193 636.830721,681.455597 C644.461013,682.739455 653.303624,683.495042 662.715803,683.619906 C663.664021,683.635914 664.596329,683.645519 665.493636,683.645519 C666.390943,683.645519 667.323252,683.635914 668.27147,683.619906 C677.690012,683.495042 686.535805,682.739455 694.169279,681.452395 C694.197917,681.449193 694.223372,681.44279 694.25201,681.439588 C694.808849,681.340338 695.365689,681.24749 695.9098,681.148239 C702.48687,679.966833 708.52301,678.292375 712.990454,676 L712.990454,694.290976 C707.103865,696.573747 689.412279,700.883156 669.521972,701.292966 C669.496517,701.292966 669.480607,701.305772 669.458333,701.308974 C663.562199,701.385813 658.786107,706.223493 658.786107,712.175344 C658.786107,713.910634 659.228396,715.530664 659.950697,716.987411 C656.810122,718.892388 654.681404,722.324547 654.681404,726.278574 C654.681404,730.219794 656.794212,733.642349 659.915695,735.553729 C659.215669,736.994467 658.786107,738.592086 658.786107,740.301762 C658.786107,744.242983 660.898915,747.665537 664.02358,749.573715 C663.320371,751.014454 662.890809,752.612073 662.890809,754.321749 C662.890809,760.324827 667.743268,765.20733 673.703041,765.20733 C673.757134,765.20733 673.801681,765.178515 673.858956,765.175313 L673.935323,765.175313 C685.056203,764.858351 694.579749,763.846632 702.238679,762.162569 C704.73332,761.615088 707.278872,761.006776 709.884881,760.38886 C710.915829,760.142333 711.956324,759.899008 712.993636,759.64928 L713,769.548755 C712.007235,772.846446 694.815213,779 665.493636,779 L665.493636,779 Z" id="Fill-1"></path>
        </g>
    </g>
</svg>